<svg width="54" height="52" viewBox="0 0 54 52" fill="none" xmlns="http://www.w3.org/2000/svg">
<path d="M34.875 30.3333H33.0975L32.4675 29.7483C34.7487 27.2004 36.0025 23.9475 36 20.5833C36 17.7979 35.1423 15.0751 33.5352 12.7591C31.9282 10.4431 29.6441 8.63797 26.9718 7.57204C24.2994 6.5061 21.3588 6.22721 18.5218 6.77061C15.6848 7.31402 13.0789 8.65533 11.0336 10.6249C8.98823 12.5945 7.59533 15.1039 7.03102 17.8358C6.46671 20.5677 6.75634 23.3994 7.86327 25.9728C8.9702 28.5462 10.8447 30.7457 13.2498 32.2932C15.6549 33.8407 18.4825 34.6667 21.375 34.6667C24.9975 34.6667 28.3275 33.3883 30.8925 31.265L31.5 31.8717V33.5833L42.75 44.395L46.1025 41.1667L34.875 30.3333ZM21.375 30.3333C15.7725 30.3333 11.25 25.9783 11.25 20.5833C11.25 15.1883 15.7725 10.8333 21.375 10.8333C26.9775 10.8333 31.5 15.1883 31.5 20.5833C31.5 25.9783 26.9775 30.3333 21.375 30.3333Z" fill="black"/>
</svg>
